<svg width="1280" height="612" viewBox="0 0 1280 612" fill="none" xmlns="http://www.w3.org/2000/svg">
<g clip-path="url(#clip0_1_2)">
<rect width="1280" height="611.855" transform="translate(0 0.145325)" fill="#E4F4DD" fill-opacity="0.94"/>
<circle cx="1193.99" cy="68.9883" r="30.5408" transform="rotate(-16.5864 1193.99 68.9883)" fill="#60DD1D"/>
<path d="M189.097 198.483C188.964 197.025 188.374 195.891 187.327 195.082C186.293 194.26 184.814 193.849 182.892 193.849C181.619 193.849 180.559 194.015 179.71 194.347C178.862 194.678 178.225 195.135 177.801 195.719C177.377 196.289 177.158 196.945 177.145 197.688C177.118 198.297 177.238 198.834 177.503 199.298C177.781 199.762 178.179 200.173 178.696 200.531C179.226 200.876 179.863 201.181 180.605 201.446C181.348 201.711 182.183 201.943 183.111 202.142L186.611 202.938C188.626 203.375 190.402 203.958 191.94 204.688C193.491 205.417 194.791 206.285 195.838 207.293C196.899 208.3 197.701 209.46 198.244 210.773C198.788 212.085 199.066 213.557 199.08 215.188C199.066 217.759 198.417 219.967 197.131 221.81C195.845 223.652 193.995 225.064 191.582 226.045C189.183 227.027 186.286 227.517 182.892 227.517C179.485 227.517 176.515 227.007 173.983 225.986C171.451 224.965 169.482 223.414 168.077 221.332C166.671 219.251 165.949 216.619 165.909 213.438H175.335C175.415 214.75 175.766 215.844 176.389 216.719C177.012 217.594 177.867 218.257 178.955 218.707C180.055 219.158 181.328 219.384 182.773 219.384C184.098 219.384 185.225 219.205 186.153 218.847C187.095 218.489 187.817 217.991 188.321 217.355C188.825 216.719 189.083 215.99 189.097 215.168C189.083 214.399 188.845 213.742 188.381 213.199C187.917 212.642 187.201 212.165 186.233 211.767C185.278 211.356 184.059 210.978 182.574 210.634L178.318 209.639C174.792 208.83 172.014 207.525 169.986 205.722C167.957 203.905 166.95 201.453 166.963 198.364C166.95 195.845 167.626 193.637 168.991 191.741C170.357 189.846 172.246 188.367 174.659 187.307C177.072 186.246 179.823 185.716 182.912 185.716C186.067 185.716 188.805 186.253 191.125 187.327C193.458 188.387 195.268 189.879 196.554 191.801C197.84 193.723 198.496 195.951 198.523 198.483H189.097ZM204.051 186.273H216.241L226.582 211.489H227.06L237.401 186.273H249.591V227H240.006V201.983H239.668L229.884 226.741H223.759L213.974 201.844H213.636V227H204.051V186.273ZM264.54 227H253.961L267.702 186.273H280.808L294.549 227H283.969L274.404 196.534H274.086L264.54 227ZM263.129 210.972H285.242V218.449H263.129V210.972ZM298.934 227V186.273H315.758C318.807 186.273 321.439 186.823 323.653 187.923C325.88 189.01 327.597 190.575 328.803 192.616C330.01 194.645 330.613 197.051 330.613 199.835C330.613 202.659 329.996 205.059 328.763 207.034C327.531 208.996 325.781 210.494 323.513 211.528C321.246 212.549 318.562 213.06 315.46 213.06H304.82V205.304H313.63C315.115 205.304 316.354 205.112 317.349 204.727C318.356 204.33 319.119 203.733 319.636 202.938C320.153 202.129 320.411 201.095 320.411 199.835C320.411 198.576 320.153 197.535 319.636 196.713C319.119 195.878 318.356 195.255 317.349 194.844C316.341 194.42 315.102 194.207 313.63 194.207H308.778V227H298.934ZM321.863 208.386L332.005 227H321.266L311.323 208.386H321.863ZM334.68 194.267V186.273H369.103V194.267H356.754V227H347.049V194.267H334.68ZM384.609 194.267V186.273H419.033V194.267H406.683V227H396.979V194.267H384.609ZM423.84 227V186.273H440.664C443.713 186.273 446.345 186.823 448.559 187.923C450.786 189.01 452.503 190.575 453.71 192.616C454.916 194.645 455.519 197.051 455.519 199.835C455.519 202.659 454.903 205.059 453.67 207.034C452.437 208.996 450.687 210.494 448.42 211.528C446.153 212.549 443.468 213.06 440.366 213.06H429.727V205.304H438.536C440.021 205.304 441.261 205.112 442.255 204.727C443.263 204.33 444.025 203.733 444.542 202.938C445.059 202.129 445.317 201.095 445.317 199.835C445.317 198.576 445.059 197.535 444.542 196.713C444.025 195.878 443.263 195.255 442.255 194.844C441.247 194.42 440.008 194.207 438.536 194.207H433.684V227H423.84ZM446.769 208.386L456.911 227H446.173L436.229 208.386H446.769ZM469.728 227H459.148L472.89 186.273H485.995L499.737 227H489.157L479.592 196.534H479.273L469.728 227ZM468.316 210.972H490.43V218.449H468.316V210.972ZM504.121 227V186.273H531.923V194.267H513.965V202.619H530.153V210.634H513.965V227H504.121ZM536.879 227V186.273H564.68V194.267H546.723V202.619H562.911V210.634H546.723V227H536.879ZM569.637 227V186.273H597.438V194.267H579.481V202.619H595.668V210.634H579.481V227H569.637ZM602.395 227V186.273H630.196V194.267H612.239V202.619H628.426V210.634H612.239V227H602.395ZM644.996 186.273V227H635.153V186.273H644.996ZM688.145 201.028H678.202C678.069 200.008 677.797 199.086 677.386 198.264C676.975 197.442 676.432 196.74 675.756 196.156C675.08 195.573 674.277 195.129 673.349 194.824C672.435 194.506 671.42 194.347 670.307 194.347C668.331 194.347 666.628 194.83 665.196 195.798C663.777 196.766 662.684 198.165 661.915 199.994C661.159 201.824 660.781 204.038 660.781 206.636C660.781 209.341 661.166 211.608 661.935 213.438C662.717 215.254 663.811 216.626 665.216 217.554C666.634 218.469 668.312 218.926 670.247 218.926C671.334 218.926 672.322 218.787 673.21 218.509C674.112 218.23 674.901 217.826 675.577 217.295C676.266 216.752 676.83 216.096 677.267 215.327C677.718 214.545 678.029 213.663 678.202 212.682L688.145 212.741C687.973 214.545 687.449 216.321 686.574 218.071C685.712 219.821 684.526 221.419 683.014 222.864C681.503 224.295 679.66 225.436 677.486 226.284C675.325 227.133 672.846 227.557 670.048 227.557C666.363 227.557 663.062 226.748 660.145 225.131C657.241 223.5 654.948 221.127 653.264 218.011C651.58 214.896 650.739 211.104 650.739 206.636C650.739 202.155 651.594 198.357 653.304 195.241C655.014 192.126 657.328 189.759 660.244 188.142C663.161 186.525 666.429 185.716 670.048 185.716C672.514 185.716 674.795 186.061 676.889 186.75C678.984 187.426 680.827 188.42 682.418 189.733C684.009 191.032 685.301 192.63 686.295 194.526C687.29 196.421 687.906 198.589 688.145 201.028ZM705.809 186.273H717.999L728.34 211.489H728.817L739.158 186.273H751.349V227H741.763V201.983H741.425L731.641 226.741H725.516L715.732 201.844H715.394V227H705.809V186.273ZM766.298 227H755.719L769.46 186.273H782.565L796.307 227H785.727L776.162 196.534H775.844L766.298 227ZM764.886 210.972H787V218.449H764.886V210.972ZM835.354 186.273V227H827.001L810.794 203.494H810.536V227H800.692V186.273H809.163L825.192 209.739H825.53V186.273H835.354ZM850.353 227H839.773L853.515 186.273H866.62L880.362 227H869.782L860.217 196.534H859.898L850.353 227ZM848.941 210.972H871.055V218.449H848.941V210.972ZM909.56 199.577C909.334 198.741 909.003 198.006 908.565 197.369C908.128 196.72 907.591 196.17 906.955 195.719C906.318 195.268 905.589 194.93 904.767 194.705C903.945 194.466 903.044 194.347 902.062 194.347C900.087 194.347 898.377 194.824 896.932 195.778C895.5 196.733 894.393 198.125 893.611 199.955C892.829 201.771 892.438 203.978 892.438 206.577C892.438 209.188 892.815 211.416 893.571 213.259C894.327 215.101 895.42 216.507 896.852 217.474C898.284 218.442 900.021 218.926 902.062 218.926C903.866 218.926 905.39 218.634 906.636 218.051C907.896 217.455 908.85 216.613 909.5 215.526C910.15 214.438 910.474 213.159 910.474 211.688L912.304 211.906H902.401V204.727H919.96V210.116C919.96 213.762 919.185 216.884 917.634 219.483C916.096 222.081 913.974 224.077 911.27 225.469C908.579 226.861 905.483 227.557 901.983 227.557C898.098 227.557 894.685 226.715 891.741 225.031C888.798 223.348 886.505 220.948 884.861 217.832C883.217 214.704 882.395 210.991 882.395 206.696C882.395 203.355 882.892 200.392 883.886 197.807C884.881 195.208 886.266 193.008 888.043 191.205C889.832 189.402 891.901 188.036 894.247 187.108C896.607 186.18 899.146 185.716 901.864 185.716C904.223 185.716 906.418 186.054 908.446 186.73C910.488 187.406 912.291 188.361 913.855 189.594C915.433 190.827 916.712 192.292 917.693 193.989C918.674 195.686 919.284 197.548 919.523 199.577H909.56ZM925.762 227V186.273H954.16V194.267H935.606V202.619H952.708V210.634H935.606V219.006H954.16V227H925.762ZM960.325 186.273H972.515L982.856 211.489H983.333L993.674 186.273H1005.86V227H996.279V201.983H995.941L986.157 226.741H980.032L970.248 201.844H969.91V227H960.325V186.273ZM1012 227V186.273H1040.4V194.267H1021.85V202.619H1038.95V210.634H1021.85V219.006H1040.4V227H1012ZM1081.23 186.273V227H1072.88L1056.67 203.494H1056.41V227H1046.57V186.273H1055.04L1071.07 209.739H1071.4V186.273H1081.23ZM1086.09 194.267V186.273H1120.51V194.267H1108.16V227H1098.46V194.267H1086.09Z" fill="#60DD1D"/>
<rect x="1097" y="753" width="342" height="25.4571" transform="rotate(-90 1097 753)" fill="#60DD1D"/>
<rect x="1151.77" y="825" width="342" height="25.4571" transform="rotate(-90 1151.77 825)" fill="#60DD1D"/>
<rect x="1206.54" y="903" width="342" height="25.4571" transform="rotate(-90 1206.54 903)" fill="#60DD1D"/>
</g>
<defs>
<clipPath id="clip0_1_2">
<rect width="1280" height="611.855" fill="white" transform="translate(0 0.145325)"/>
</clipPath>
</defs>
</svg>
